<?xml version="1.0" encoding="UTF-8" standalone="no"?>
<!DOCTYPE svg PUBLIC "-//W3C//DTD SVG 1.1//EN"
 "http://www.w3.org/Graphics/SVG/1.1/DTD/svg11.dtd">
<!-- Generated by graphviz version 2.40.1 (20161225.0304)
 -->
<!-- Title: controllers_diagram Pages: 1 -->
<svg width="450pt" height="428pt"
 viewBox="0.00 0.00 450.00 428.00" xmlns="http://www.w3.org/2000/svg" xmlns:xlink="http://www.w3.org/1999/xlink">
<g id="graph0" class="graph" transform="scale(1 1) rotate(0) translate(4 424)">
<title>controllers_diagram</title>
<polygon fill="transparent" stroke="transparent" points="-4,4 -4,-424 446,-424 446,4 -4,4"/>
<!-- _diagram_info -->
<g id="node1" class="node">
<title>_diagram_info</title>
<text text-anchor="start" x="206" y="-279.6" font-family="Times,serif" font-size="13.00" fill="#000000">Controllers diagram</text>
<text text-anchor="start" x="206" y="-265.6" font-family="Times,serif" font-size="13.00" fill="#000000">Date: Feb 29 2020 &#45; 19:11</text>
<text text-anchor="start" x="206" y="-251.6" font-family="Times,serif" font-size="13.00" fill="#000000">Migration version: 20200229212246</text>
<text text-anchor="start" x="206" y="-237.6" font-family="Times,serif" font-size="13.00" fill="#000000">Generated by RailRoady 1.5.3</text>
<text text-anchor="start" x="206" y="-223.6" font-family="Times,serif" font-size="13.00" fill="#000000">http://railroady.prestonlee.com</text>
</g>
<!-- BeneficiariesController -->
<g id="node2" class="node">
<title>BeneficiariesController</title>
<path fill="none" stroke="#000000" d="M30,-252.5C30,-252.5 149,-252.5 149,-252.5 155,-252.5 161,-258.5 161,-264.5 161,-264.5 161,-378.5 161,-378.5 161,-384.5 155,-390.5 149,-390.5 149,-390.5 30,-390.5 30,-390.5 24,-390.5 18,-384.5 18,-378.5 18,-378.5 18,-264.5 18,-264.5 18,-258.5 24,-252.5 30,-252.5"/>
<text text-anchor="middle" x="89.5" y="-375.3" font-family="Times,serif" font-size="14.00" fill="#000000">BeneficiariesController</text>
<polyline fill="none" stroke="#000000" points="18,-367.5 161,-367.5 "/>
<text text-anchor="start" x="26" y="-352.3" font-family="Times,serif" font-size="14.00" fill="#000000">create</text>
<text text-anchor="start" x="26" y="-337.3" font-family="Times,serif" font-size="14.00" fill="#000000">destroy</text>
<text text-anchor="start" x="26" y="-322.3" font-family="Times,serif" font-size="14.00" fill="#000000">index</text>
<text text-anchor="start" x="26" y="-307.3" font-family="Times,serif" font-size="14.00" fill="#000000">update</text>
<polyline fill="none" stroke="#000000" points="18,-299.5 161,-299.5 "/>
<polyline fill="none" stroke="#000000" points="18,-275.5 161,-275.5 "/>
<text text-anchor="start" x="26" y="-260.3" font-family="Times,serif" font-size="14.00" fill="#000000">beneficiary_params</text>
</g>
<!-- MainController -->
<g id="node3" class="node">
<title>MainController</title>
<path fill="none" stroke="#000000" d="M210,-.5C210,-.5 342,-.5 342,-.5 348,-.5 354,-6.5 354,-12.5 354,-12.5 354,-171.5 354,-171.5 354,-177.5 348,-183.5 342,-183.5 342,-183.5 210,-183.5 210,-183.5 204,-183.5 198,-177.5 198,-171.5 198,-171.5 198,-12.5 198,-12.5 198,-6.5 204,-.5 210,-.5"/>
<text text-anchor="middle" x="276" y="-168.3" font-family="Times,serif" font-size="14.00" fill="#000000">MainController</text>
<polyline fill="none" stroke="#000000" points="198,-160.5 354,-160.5 "/>
<text text-anchor="start" x="206" y="-145.3" font-family="Times,serif" font-size="14.00" fill="#000000">authenticate_member!</text>
<text text-anchor="start" x="206" y="-130.3" font-family="Times,serif" font-size="14.00" fill="#000000">current_member</text>
<text text-anchor="start" x="206" y="-115.3" font-family="Times,serif" font-size="14.00" fill="#000000">current_members</text>
<text text-anchor="start" x="206" y="-100.3" font-family="Times,serif" font-size="14.00" fill="#000000">index</text>
<text text-anchor="start" x="206" y="-85.3" font-family="Times,serif" font-size="14.00" fill="#000000">member_signed_in?</text>
<text text-anchor="start" x="206" y="-70.3" font-family="Times,serif" font-size="14.00" fill="#000000">render_authenticate_error</text>
<polyline fill="none" stroke="#000000" points="198,-62.5 354,-62.5 "/>
<polyline fill="none" stroke="#000000" points="198,-38.5 354,-38.5 "/>
<text text-anchor="start" x="206" y="-23.3" font-family="Times,serif" font-size="14.00" fill="#000000">show_data_for_admin</text>
<text text-anchor="start" x="206" y="-8.3" font-family="Times,serif" font-size="14.00" fill="#000000">show_data_for_user</text>
</g>
<!-- TransactionsController -->
<g id="node4" class="node">
<title>TransactionsController</title>
<path fill="none" stroke="#000000" d="M12,-.5C12,-.5 144,-.5 144,-.5 150,-.5 156,-6.5 156,-12.5 156,-12.5 156,-201.5 156,-201.5 156,-207.5 150,-213.5 144,-213.5 144,-213.5 12,-213.5 12,-213.5 6,-213.5 0,-207.5 0,-201.5 0,-201.5 0,-12.5 0,-12.5 0,-6.5 6,-.5 12,-.5"/>
<text text-anchor="middle" x="78" y="-198.3" font-family="Times,serif" font-size="14.00" fill="#000000">TransactionsController</text>
<polyline fill="none" stroke="#000000" points="0,-190.5 156,-190.5 "/>
<text text-anchor="start" x="8" y="-175.3" font-family="Times,serif" font-size="14.00" fill="#000000">authenticate_member!</text>
<text text-anchor="start" x="8" y="-160.3" font-family="Times,serif" font-size="14.00" fill="#000000">create</text>
<text text-anchor="start" x="8" y="-145.3" font-family="Times,serif" font-size="14.00" fill="#000000">current_member</text>
<text text-anchor="start" x="8" y="-130.3" font-family="Times,serif" font-size="14.00" fill="#000000">current_members</text>
<text text-anchor="start" x="8" y="-115.3" font-family="Times,serif" font-size="14.00" fill="#000000">destroy</text>
<text text-anchor="start" x="8" y="-100.3" font-family="Times,serif" font-size="14.00" fill="#000000">index</text>
<text text-anchor="start" x="8" y="-85.3" font-family="Times,serif" font-size="14.00" fill="#000000">member_signed_in?</text>
<text text-anchor="start" x="8" y="-70.3" font-family="Times,serif" font-size="14.00" fill="#000000">render_authenticate_error</text>
<text text-anchor="start" x="8" y="-55.3" font-family="Times,serif" font-size="14.00" fill="#000000">update</text>
<polyline fill="none" stroke="#000000" points="0,-47.5 156,-47.5 "/>
<polyline fill="none" stroke="#000000" points="0,-23.5 156,-23.5 "/>
<text text-anchor="start" x="8" y="-8.3" font-family="Times,serif" font-size="14.00" fill="#000000">transaction_params</text>
</g>
<!-- ApplicationController -->
<g id="node5" class="node">
<title>ApplicationController</title>
<path fill="none" stroke="#000000" d="M318,-324.5C318,-324.5 430,-324.5 430,-324.5 436,-324.5 442,-330.5 442,-336.5 442,-336.5 442,-407.5 442,-407.5 442,-413.5 436,-419.5 430,-419.5 430,-419.5 318,-419.5 318,-419.5 312,-419.5 306,-413.5 306,-407.5 306,-407.5 306,-336.5 306,-336.5 306,-330.5 312,-324.5 318,-324.5"/>
<text text-anchor="middle" x="374" y="-404.3" font-family="Times,serif" font-size="14.00" fill="#000000">ApplicationController</text>
<polyline fill="none" stroke="#000000" points="306,-396.5 442,-396.5 "/>
<polyline fill="none" stroke="#000000" points="306,-372.5 442,-372.5 "/>
<polyline fill="none" stroke="#000000" points="306,-348.5 442,-348.5 "/>
</g>
</g>
</svg>
