<?xml version="1.0" encoding="UTF-8" standalone="no"?>
<!DOCTYPE svg PUBLIC "-//W3C//DTD SVG 1.1//EN"
 "http://www.w3.org/Graphics/SVG/1.1/DTD/svg11.dtd">
<!-- Generated by graphviz version 2.40.1 (20161225.0304)
 -->
<!-- Title: controllers_diagram Pages: 1 -->
<svg width="469pt" height="568pt"
 viewBox="0.00 0.00 469.00 568.00" xmlns="http://www.w3.org/2000/svg" xmlns:xlink="http://www.w3.org/1999/xlink">
<g id="graph0" class="graph" transform="scale(1 1) rotate(0) translate(4 564)">
<title>controllers_diagram</title>
<polygon fill="transparent" stroke="transparent" points="-4,4 -4,-564 465,-564 465,4 -4,4"/>
<!-- _diagram_info -->
<g id="node1" class="node">
<title>_diagram_info</title>
<text text-anchor="start" x="255" y="-443.6" font-family="Times,serif" font-size="13.00" fill="#000000">Controllers diagram</text>
<text text-anchor="start" x="255" y="-429.6" font-family="Times,serif" font-size="13.00" fill="#000000">Date: Mar 16 2020 &#45; 15:31</text>
<text text-anchor="start" x="255" y="-415.6" font-family="Times,serif" font-size="13.00" fill="#000000">Migration version: 20200229222650</text>
<text text-anchor="start" x="255" y="-401.6" font-family="Times,serif" font-size="13.00" fill="#000000">Generated by RailRoady 1.5.3</text>
<text text-anchor="start" x="255" y="-387.6" font-family="Times,serif" font-size="13.00" fill="#000000">http://railroady.prestonlee.com</text>
</g>
<!-- BeneficiariesController -->
<g id="node2" class="node">
<title>BeneficiariesController</title>
<path fill="none" stroke="#000000" d="M12,-114.5C12,-114.5 144,-114.5 144,-114.5 150,-114.5 156,-120.5 156,-126.5 156,-126.5 156,-315.5 156,-315.5 156,-321.5 150,-327.5 144,-327.5 144,-327.5 12,-327.5 12,-327.5 6,-327.5 0,-321.5 0,-315.5 0,-315.5 0,-126.5 0,-126.5 0,-120.5 6,-114.5 12,-114.5"/>
<text text-anchor="middle" x="78" y="-312.3" font-family="Times,serif" font-size="14.00" fill="#000000">BeneficiariesController</text>
<polyline fill="none" stroke="#000000" points="0,-304.5 156,-304.5 "/>
<text text-anchor="start" x="8" y="-289.3" font-family="Times,serif" font-size="14.00" fill="#000000">authenticate_member!</text>
<text text-anchor="start" x="8" y="-274.3" font-family="Times,serif" font-size="14.00" fill="#000000">create</text>
<text text-anchor="start" x="8" y="-259.3" font-family="Times,serif" font-size="14.00" fill="#000000">current_member</text>
<text text-anchor="start" x="8" y="-244.3" font-family="Times,serif" font-size="14.00" fill="#000000">current_members</text>
<text text-anchor="start" x="8" y="-229.3" font-family="Times,serif" font-size="14.00" fill="#000000">destroy</text>
<text text-anchor="start" x="8" y="-214.3" font-family="Times,serif" font-size="14.00" fill="#000000">index</text>
<text text-anchor="start" x="8" y="-199.3" font-family="Times,serif" font-size="14.00" fill="#000000">member_signed_in?</text>
<text text-anchor="start" x="8" y="-184.3" font-family="Times,serif" font-size="14.00" fill="#000000">render_authenticate_error</text>
<text text-anchor="start" x="8" y="-169.3" font-family="Times,serif" font-size="14.00" fill="#000000">update</text>
<polyline fill="none" stroke="#000000" points="0,-161.5 156,-161.5 "/>
<polyline fill="none" stroke="#000000" points="0,-137.5 156,-137.5 "/>
<text text-anchor="start" x="8" y="-122.3" font-family="Times,serif" font-size="14.00" fill="#000000">beneficiary_params</text>
</g>
<!-- MainController -->
<g id="node3" class="node">
<title>MainController</title>
<path fill="none" stroke="#000000" d="M12,-361.5C12,-361.5 144,-361.5 144,-361.5 150,-361.5 156,-367.5 156,-373.5 156,-373.5 156,-547.5 156,-547.5 156,-553.5 150,-559.5 144,-559.5 144,-559.5 12,-559.5 12,-559.5 6,-559.5 0,-553.5 0,-547.5 0,-547.5 0,-373.5 0,-373.5 0,-367.5 6,-361.5 12,-361.5"/>
<text text-anchor="middle" x="78" y="-544.3" font-family="Times,serif" font-size="14.00" fill="#000000">MainController</text>
<polyline fill="none" stroke="#000000" points="0,-536.5 156,-536.5 "/>
<text text-anchor="start" x="8" y="-521.3" font-family="Times,serif" font-size="14.00" fill="#000000">authenticate_member!</text>
<text text-anchor="start" x="8" y="-506.3" font-family="Times,serif" font-size="14.00" fill="#000000">current_member</text>
<text text-anchor="start" x="8" y="-491.3" font-family="Times,serif" font-size="14.00" fill="#000000">current_members</text>
<text text-anchor="start" x="8" y="-476.3" font-family="Times,serif" font-size="14.00" fill="#000000">index</text>
<text text-anchor="start" x="8" y="-461.3" font-family="Times,serif" font-size="14.00" fill="#000000">member_signed_in?</text>
<text text-anchor="start" x="8" y="-446.3" font-family="Times,serif" font-size="14.00" fill="#000000">render_authenticate_error</text>
<polyline fill="none" stroke="#000000" points="0,-438.5 156,-438.5 "/>
<polyline fill="none" stroke="#000000" points="0,-414.5 156,-414.5 "/>
<text text-anchor="start" x="8" y="-399.3" font-family="Times,serif" font-size="14.00" fill="#000000">params_login</text>
<text text-anchor="start" x="8" y="-384.3" font-family="Times,serif" font-size="14.00" fill="#000000">show_data_for_admin</text>
<text text-anchor="start" x="8" y="-369.3" font-family="Times,serif" font-size="14.00" fill="#000000">show_data_for_user</text>
</g>
<!-- TransactionsController -->
<g id="node4" class="node">
<title>TransactionsController</title>
<path fill="none" stroke="#000000" d="M202,-133.5C202,-133.5 334,-133.5 334,-133.5 340,-133.5 346,-139.5 346,-145.5 346,-145.5 346,-334.5 346,-334.5 346,-340.5 340,-346.5 334,-346.5 334,-346.5 202,-346.5 202,-346.5 196,-346.5 190,-340.5 190,-334.5 190,-334.5 190,-145.5 190,-145.5 190,-139.5 196,-133.5 202,-133.5"/>
<text text-anchor="middle" x="268" y="-331.3" font-family="Times,serif" font-size="14.00" fill="#000000">TransactionsController</text>
<polyline fill="none" stroke="#000000" points="190,-323.5 346,-323.5 "/>
<text text-anchor="start" x="198" y="-308.3" font-family="Times,serif" font-size="14.00" fill="#000000">authenticate_member!</text>
<text text-anchor="start" x="198" y="-293.3" font-family="Times,serif" font-size="14.00" fill="#000000">create</text>
<text text-anchor="start" x="198" y="-278.3" font-family="Times,serif" font-size="14.00" fill="#000000">current_member</text>
<text text-anchor="start" x="198" y="-263.3" font-family="Times,serif" font-size="14.00" fill="#000000">current_members</text>
<text text-anchor="start" x="198" y="-248.3" font-family="Times,serif" font-size="14.00" fill="#000000">destroy</text>
<text text-anchor="start" x="198" y="-233.3" font-family="Times,serif" font-size="14.00" fill="#000000">index</text>
<text text-anchor="start" x="198" y="-218.3" font-family="Times,serif" font-size="14.00" fill="#000000">member_signed_in?</text>
<text text-anchor="start" x="198" y="-203.3" font-family="Times,serif" font-size="14.00" fill="#000000">render_authenticate_error</text>
<text text-anchor="start" x="198" y="-188.3" font-family="Times,serif" font-size="14.00" fill="#000000">update</text>
<polyline fill="none" stroke="#000000" points="190,-180.5 346,-180.5 "/>
<polyline fill="none" stroke="#000000" points="190,-156.5 346,-156.5 "/>
<text text-anchor="start" x="198" y="-141.3" font-family="Times,serif" font-size="14.00" fill="#000000">transaction_params</text>
</g>
<!-- ApplicationController -->
<g id="node5" class="node">
<title>ApplicationController</title>
<path fill="none" stroke="#000000" d="M202,-.5C202,-.5 314,-.5 314,-.5 320,-.5 326,-6.5 326,-12.5 326,-12.5 326,-83.5 326,-83.5 326,-89.5 320,-95.5 314,-95.5 314,-95.5 202,-95.5 202,-95.5 196,-95.5 190,-89.5 190,-83.5 190,-83.5 190,-12.5 190,-12.5 190,-6.5 196,-.5 202,-.5"/>
<text text-anchor="middle" x="258" y="-80.3" font-family="Times,serif" font-size="14.00" fill="#000000">ApplicationController</text>
<polyline fill="none" stroke="#000000" points="190,-72.5 326,-72.5 "/>
<polyline fill="none" stroke="#000000" points="190,-48.5 326,-48.5 "/>
<polyline fill="none" stroke="#000000" points="190,-24.5 326,-24.5 "/>
</g>
</g>
</svg>
