<?xml version="1.0" encoding="UTF-8" standalone="no"?>
<!DOCTYPE svg PUBLIC "-//W3C//DTD SVG 1.1//EN"
 "http://www.w3.org/Graphics/SVG/1.1/DTD/svg11.dtd">
<!-- Generated by graphviz version 2.40.1 (20161225.0304)
 -->
<!-- Title: controllers_diagram Pages: 1 -->
<svg width="469pt" height="352pt"
 viewBox="0.00 0.00 469.00 352.00" xmlns="http://www.w3.org/2000/svg" xmlns:xlink="http://www.w3.org/1999/xlink">
<g id="graph0" class="graph" transform="scale(1 1) rotate(0) translate(4 348)">
<title>controllers_diagram</title>
<polygon fill="transparent" stroke="transparent" points="-4,4 -4,-348 465,-348 465,4 -4,4"/>
<!-- _diagram_info -->
<g id="node1" class="node">
<title>_diagram_info</title>
<text text-anchor="start" x="255" y="-329.6" font-family="Times,serif" font-size="13.00" fill="#000000">Controllers diagram</text>
<text text-anchor="start" x="255" y="-315.6" font-family="Times,serif" font-size="13.00" fill="#000000">Date: Feb 24 2020 &#45; 18:39</text>
<text text-anchor="start" x="255" y="-301.6" font-family="Times,serif" font-size="13.00" fill="#000000">Migration version: 20200224212509</text>
<text text-anchor="start" x="255" y="-287.6" font-family="Times,serif" font-size="13.00" fill="#000000">Generated by RailRoady 1.5.3</text>
<text text-anchor="start" x="255" y="-273.6" font-family="Times,serif" font-size="13.00" fill="#000000">http://railroady.prestonlee.com</text>
</g>
<!-- BeneficiariesController -->
<g id="node2" class="node">
<title>BeneficiariesController</title>
<path fill="none" stroke="#000000" d="M12,-.5C12,-.5 144,-.5 144,-.5 150,-.5 156,-6.5 156,-12.5 156,-12.5 156,-201.5 156,-201.5 156,-207.5 150,-213.5 144,-213.5 144,-213.5 12,-213.5 12,-213.5 6,-213.5 0,-207.5 0,-201.5 0,-201.5 0,-12.5 0,-12.5 0,-6.5 6,-.5 12,-.5"/>
<text text-anchor="middle" x="78" y="-198.3" font-family="Times,serif" font-size="14.00" fill="#000000">BeneficiariesController</text>
<polyline fill="none" stroke="#000000" points="0,-190.5 156,-190.5 "/>
<text text-anchor="start" x="8" y="-175.3" font-family="Times,serif" font-size="14.00" fill="#000000">authenticate_member!</text>
<text text-anchor="start" x="8" y="-160.3" font-family="Times,serif" font-size="14.00" fill="#000000">create</text>
<text text-anchor="start" x="8" y="-145.3" font-family="Times,serif" font-size="14.00" fill="#000000">current_member</text>
<text text-anchor="start" x="8" y="-130.3" font-family="Times,serif" font-size="14.00" fill="#000000">current_members</text>
<text text-anchor="start" x="8" y="-115.3" font-family="Times,serif" font-size="14.00" fill="#000000">destroy</text>
<text text-anchor="start" x="8" y="-100.3" font-family="Times,serif" font-size="14.00" fill="#000000">index</text>
<text text-anchor="start" x="8" y="-85.3" font-family="Times,serif" font-size="14.00" fill="#000000">member_signed_in?</text>
<text text-anchor="start" x="8" y="-70.3" font-family="Times,serif" font-size="14.00" fill="#000000">render_authenticate_error</text>
<text text-anchor="start" x="8" y="-55.3" font-family="Times,serif" font-size="14.00" fill="#000000">update</text>
<polyline fill="none" stroke="#000000" points="0,-47.5 156,-47.5 "/>
<polyline fill="none" stroke="#000000" points="0,-23.5 156,-23.5 "/>
<text text-anchor="start" x="8" y="-8.3" font-family="Times,serif" font-size="14.00" fill="#000000">beneficiary_params</text>
</g>
<!-- TransactionsController -->
<g id="node3" class="node">
<title>TransactionsController</title>
<path fill="none" stroke="#000000" d="M202,-19.5C202,-19.5 334,-19.5 334,-19.5 340,-19.5 346,-25.5 346,-31.5 346,-31.5 346,-220.5 346,-220.5 346,-226.5 340,-232.5 334,-232.5 334,-232.5 202,-232.5 202,-232.5 196,-232.5 190,-226.5 190,-220.5 190,-220.5 190,-31.5 190,-31.5 190,-25.5 196,-19.5 202,-19.5"/>
<text text-anchor="middle" x="268" y="-217.3" font-family="Times,serif" font-size="14.00" fill="#000000">TransactionsController</text>
<polyline fill="none" stroke="#000000" points="190,-209.5 346,-209.5 "/>
<text text-anchor="start" x="198" y="-194.3" font-family="Times,serif" font-size="14.00" fill="#000000">authenticate_member!</text>
<text text-anchor="start" x="198" y="-179.3" font-family="Times,serif" font-size="14.00" fill="#000000">create</text>
<text text-anchor="start" x="198" y="-164.3" font-family="Times,serif" font-size="14.00" fill="#000000">current_member</text>
<text text-anchor="start" x="198" y="-149.3" font-family="Times,serif" font-size="14.00" fill="#000000">current_members</text>
<text text-anchor="start" x="198" y="-134.3" font-family="Times,serif" font-size="14.00" fill="#000000">destroy</text>
<text text-anchor="start" x="198" y="-119.3" font-family="Times,serif" font-size="14.00" fill="#000000">index</text>
<text text-anchor="start" x="198" y="-104.3" font-family="Times,serif" font-size="14.00" fill="#000000">member_signed_in?</text>
<text text-anchor="start" x="198" y="-89.3" font-family="Times,serif" font-size="14.00" fill="#000000">render_authenticate_error</text>
<text text-anchor="start" x="198" y="-74.3" font-family="Times,serif" font-size="14.00" fill="#000000">update</text>
<polyline fill="none" stroke="#000000" points="190,-66.5 346,-66.5 "/>
<polyline fill="none" stroke="#000000" points="190,-42.5 346,-42.5 "/>
<text text-anchor="start" x="198" y="-27.3" font-family="Times,serif" font-size="14.00" fill="#000000">transaction_params</text>
</g>
<!-- ApplicationController -->
<g id="node4" class="node">
<title>ApplicationController</title>
<path fill="none" stroke="#000000" d="M31,-247.5C31,-247.5 143,-247.5 143,-247.5 149,-247.5 155,-253.5 155,-259.5 155,-259.5 155,-330.5 155,-330.5 155,-336.5 149,-342.5 143,-342.5 143,-342.5 31,-342.5 31,-342.5 25,-342.5 19,-336.5 19,-330.5 19,-330.5 19,-259.5 19,-259.5 19,-253.5 25,-247.5 31,-247.5"/>
<text text-anchor="middle" x="87" y="-327.3" font-family="Times,serif" font-size="14.00" fill="#000000">ApplicationController</text>
<polyline fill="none" stroke="#000000" points="19,-319.5 155,-319.5 "/>
<polyline fill="none" stroke="#000000" points="19,-295.5 155,-295.5 "/>
<polyline fill="none" stroke="#000000" points="19,-271.5 155,-271.5 "/>
</g>
</g>
</svg>
