<?xml version="1.0" encoding="UTF-8" standalone="no"?>
<!DOCTYPE svg PUBLIC "-//W3C//DTD SVG 1.1//EN"
 "http://www.w3.org/Graphics/SVG/1.1/DTD/svg11.dtd">
<!-- Generated by graphviz version 2.40.1 (20161225.0304)
 -->
<!-- Title: models_diagram Pages: 1 -->
<svg width="832pt" height="911pt"
 viewBox="0.00 0.00 832.00 911.00" xmlns="http://www.w3.org/2000/svg" xmlns:xlink="http://www.w3.org/1999/xlink">
<g id="graph0" class="graph" transform="scale(1 1) rotate(0) translate(4 907)">
<title>models_diagram</title>
<polygon fill="transparent" stroke="transparent" points="-4,4 -4,-907 828,-907 828,4 -4,4"/>
<!-- _diagram_info -->
<g id="node1" class="node">
<title>_diagram_info</title>
<text text-anchor="start" x="8" y="-769.1" font-family="Times,serif" font-size="13.00" fill="#000000">Models diagram</text>
<text text-anchor="start" x="8" y="-755.1" font-family="Times,serif" font-size="13.00" fill="#000000">Date: Feb 24 2020 &#45; 18:39</text>
<text text-anchor="start" x="8" y="-741.1" font-family="Times,serif" font-size="13.00" fill="#000000">Migration version: 20200224212509</text>
<text text-anchor="start" x="8" y="-727.1" font-family="Times,serif" font-size="13.00" fill="#000000">Generated by RailRoady 1.5.3</text>
<text text-anchor="start" x="8" y="-713.1" font-family="Times,serif" font-size="13.00" fill="#000000">http://railroady.prestonlee.com</text>
</g>
<!-- Transaction -->
<g id="node2" class="node">
<title>Transaction</title>
<path fill="none" stroke="#000000" d="M271,-.5C271,-.5 507,-.5 507,-.5 513,-.5 519,-6.5 519,-12.5 519,-12.5 519,-184.5 519,-184.5 519,-190.5 513,-196.5 507,-196.5 507,-196.5 271,-196.5 271,-196.5 265,-196.5 259,-190.5 259,-184.5 259,-184.5 259,-12.5 259,-12.5 259,-6.5 265,-.5 271,-.5"/>
<text text-anchor="middle" x="389" y="-181.3" font-family="Times,serif" font-size="14.00" fill="#000000">Transaction</text>
<polyline fill="none" stroke="#000000" points="259,-173.5 519,-173.5 "/>
<text text-anchor="start" x="267" y="-158.3" font-family="Times,serif" font-size="14.00" fill="#000000">id :bigint</text>
<text text-anchor="start" x="267" y="-143.3" font-family="Times,serif" font-size="14.00" fill="#000000">beneficiary_id :bigint</text>
<text text-anchor="start" x="267" y="-128.3" font-family="Times,serif" font-size="14.00" fill="#000000">user_id :bigint</text>
<text text-anchor="start" x="267" y="-113.3" font-family="Times,serif" font-size="14.00" fill="#000000">rate :integer</text>
<text text-anchor="start" x="267" y="-98.3" font-family="Times,serif" font-size="14.00" fill="#000000">currency :character varying</text>
<text text-anchor="start" x="267" y="-83.3" font-family="Times,serif" font-size="14.00" fill="#000000">money_received :integer</text>
<text text-anchor="start" x="267" y="-68.3" font-family="Times,serif" font-size="14.00" fill="#000000">money_sent :integer</text>
<text text-anchor="start" x="267" y="-53.3" font-family="Times,serif" font-size="14.00" fill="#000000">in_progress :boolean</text>
<text text-anchor="start" x="267" y="-38.3" font-family="Times,serif" font-size="14.00" fill="#000000">finished :boolean</text>
<text text-anchor="start" x="267" y="-23.3" font-family="Times,serif" font-size="14.00" fill="#000000">created_at :timestamp(6) without time zone</text>
<text text-anchor="start" x="267" y="-8.3" font-family="Times,serif" font-size="14.00" fill="#000000">updated_at :timestamp(6) without time zone</text>
</g>
<!-- User -->
<g id="node3" class="node">
<title>User</title>
<path fill="none" stroke="#000000" d="M244.5,-233.5C244.5,-233.5 533.5,-233.5 533.5,-233.5 539.5,-233.5 545.5,-239.5 545.5,-245.5 545.5,-245.5 545.5,-537.5 545.5,-537.5 545.5,-543.5 539.5,-549.5 533.5,-549.5 533.5,-549.5 244.5,-549.5 244.5,-549.5 238.5,-549.5 232.5,-543.5 232.5,-537.5 232.5,-537.5 232.5,-245.5 232.5,-245.5 232.5,-239.5 238.5,-233.5 244.5,-233.5"/>
<text text-anchor="middle" x="389" y="-534.3" font-family="Times,serif" font-size="14.00" fill="#000000">User</text>
<polyline fill="none" stroke="#000000" points="232.5,-526.5 545.5,-526.5 "/>
<text text-anchor="start" x="240.5" y="-511.3" font-family="Times,serif" font-size="14.00" fill="#000000">id :bigint</text>
<text text-anchor="start" x="240.5" y="-496.3" font-family="Times,serif" font-size="14.00" fill="#000000">provider :character varying</text>
<text text-anchor="start" x="240.5" y="-481.3" font-family="Times,serif" font-size="14.00" fill="#000000">uid :character varying</text>
<text text-anchor="start" x="240.5" y="-466.3" font-family="Times,serif" font-size="14.00" fill="#000000">encrypted_password :character varying</text>
<text text-anchor="start" x="240.5" y="-451.3" font-family="Times,serif" font-size="14.00" fill="#000000">reset_password_token :character varying</text>
<text text-anchor="start" x="240.5" y="-436.3" font-family="Times,serif" font-size="14.00" fill="#000000">reset_password_sent_at :timestamp without time zone</text>
<text text-anchor="start" x="240.5" y="-421.3" font-family="Times,serif" font-size="14.00" fill="#000000">allow_password_change :boolean</text>
<text text-anchor="start" x="240.5" y="-406.3" font-family="Times,serif" font-size="14.00" fill="#000000">remember_created_at :timestamp without time zone</text>
<text text-anchor="start" x="240.5" y="-391.3" font-family="Times,serif" font-size="14.00" fill="#000000">confirmation_token :character varying</text>
<text text-anchor="start" x="240.5" y="-376.3" font-family="Times,serif" font-size="14.00" fill="#000000">confirmed_at :timestamp without time zone</text>
<text text-anchor="start" x="240.5" y="-361.3" font-family="Times,serif" font-size="14.00" fill="#000000">confirmation_sent_at :timestamp without time zone</text>
<text text-anchor="start" x="240.5" y="-346.3" font-family="Times,serif" font-size="14.00" fill="#000000">unconfirmed_email :character varying</text>
<text text-anchor="start" x="240.5" y="-331.3" font-family="Times,serif" font-size="14.00" fill="#000000">name :character varying</text>
<text text-anchor="start" x="240.5" y="-316.3" font-family="Times,serif" font-size="14.00" fill="#000000">nickname :character varying</text>
<text text-anchor="start" x="240.5" y="-301.3" font-family="Times,serif" font-size="14.00" fill="#000000">image :character varying</text>
<text text-anchor="start" x="240.5" y="-286.3" font-family="Times,serif" font-size="14.00" fill="#000000">email :character varying</text>
<text text-anchor="start" x="240.5" y="-271.3" font-family="Times,serif" font-size="14.00" fill="#000000">tokens :json</text>
<text text-anchor="start" x="240.5" y="-256.3" font-family="Times,serif" font-size="14.00" fill="#000000">created_at :timestamp(6) without time zone</text>
<text text-anchor="start" x="240.5" y="-241.3" font-family="Times,serif" font-size="14.00" fill="#000000">updated_at :timestamp(6) without time zone</text>
</g>
<!-- User&#45;&gt;Transaction -->
<g id="edge1" class="edge">
<title>User&#45;&gt;Transaction</title>
<path fill="none" stroke="#0b04b1" d="M389,-225.2828C389,-219.0932 389,-212.9515 389,-206.9028"/>
<ellipse fill="none" stroke="#0b04b1" cx="389" cy="-229.4224" rx="4" ry="4"/>
<polygon fill="#0b04b1" stroke="#0b04b1" points="389.0001,-206.8193 393.5,-196.8193 389,-201.8193 389,-196.8193 389,-196.8193 389,-196.8193 389,-201.8193 384.5,-196.8193 389.0001,-206.8193 389.0001,-206.8193"/>
</g>
<!-- ApplicationRecord -->
<g id="node4" class="node">
<title>ApplicationRecord</title>
<ellipse fill="none" stroke="#000000" cx="641" cy="-744.5" rx="77.1866" ry="18"/>
<text text-anchor="middle" x="641" y="-740.8" font-family="Times,serif" font-size="14.00" fill="#000000">ApplicationRecord</text>
</g>
<!-- Admin -->
<g id="node5" class="node">
<title>Admin</title>
<path fill="none" stroke="#000000" d="M244.5,-586.5C244.5,-586.5 533.5,-586.5 533.5,-586.5 539.5,-586.5 545.5,-592.5 545.5,-598.5 545.5,-598.5 545.5,-890.5 545.5,-890.5 545.5,-896.5 539.5,-902.5 533.5,-902.5 533.5,-902.5 244.5,-902.5 244.5,-902.5 238.5,-902.5 232.5,-896.5 232.5,-890.5 232.5,-890.5 232.5,-598.5 232.5,-598.5 232.5,-592.5 238.5,-586.5 244.5,-586.5"/>
<text text-anchor="middle" x="389" y="-887.3" font-family="Times,serif" font-size="14.00" fill="#000000">Admin</text>
<polyline fill="none" stroke="#000000" points="232.5,-879.5 545.5,-879.5 "/>
<text text-anchor="start" x="240.5" y="-864.3" font-family="Times,serif" font-size="14.00" fill="#000000">id :bigint</text>
<text text-anchor="start" x="240.5" y="-849.3" font-family="Times,serif" font-size="14.00" fill="#000000">provider :character varying</text>
<text text-anchor="start" x="240.5" y="-834.3" font-family="Times,serif" font-size="14.00" fill="#000000">uid :character varying</text>
<text text-anchor="start" x="240.5" y="-819.3" font-family="Times,serif" font-size="14.00" fill="#000000">encrypted_password :character varying</text>
<text text-anchor="start" x="240.5" y="-804.3" font-family="Times,serif" font-size="14.00" fill="#000000">reset_password_token :character varying</text>
<text text-anchor="start" x="240.5" y="-789.3" font-family="Times,serif" font-size="14.00" fill="#000000">reset_password_sent_at :timestamp without time zone</text>
<text text-anchor="start" x="240.5" y="-774.3" font-family="Times,serif" font-size="14.00" fill="#000000">allow_password_change :boolean</text>
<text text-anchor="start" x="240.5" y="-759.3" font-family="Times,serif" font-size="14.00" fill="#000000">remember_created_at :timestamp without time zone</text>
<text text-anchor="start" x="240.5" y="-744.3" font-family="Times,serif" font-size="14.00" fill="#000000">confirmation_token :character varying</text>
<text text-anchor="start" x="240.5" y="-729.3" font-family="Times,serif" font-size="14.00" fill="#000000">confirmed_at :timestamp without time zone</text>
<text text-anchor="start" x="240.5" y="-714.3" font-family="Times,serif" font-size="14.00" fill="#000000">confirmation_sent_at :timestamp without time zone</text>
<text text-anchor="start" x="240.5" y="-699.3" font-family="Times,serif" font-size="14.00" fill="#000000">unconfirmed_email :character varying</text>
<text text-anchor="start" x="240.5" y="-684.3" font-family="Times,serif" font-size="14.00" fill="#000000">name :character varying</text>
<text text-anchor="start" x="240.5" y="-669.3" font-family="Times,serif" font-size="14.00" fill="#000000">nickname :character varying</text>
<text text-anchor="start" x="240.5" y="-654.3" font-family="Times,serif" font-size="14.00" fill="#000000">image :character varying</text>
<text text-anchor="start" x="240.5" y="-639.3" font-family="Times,serif" font-size="14.00" fill="#000000">email :character varying</text>
<text text-anchor="start" x="240.5" y="-624.3" font-family="Times,serif" font-size="14.00" fill="#000000">tokens :json</text>
<text text-anchor="start" x="240.5" y="-609.3" font-family="Times,serif" font-size="14.00" fill="#000000">created_at :timestamp(6) without time zone</text>
<text text-anchor="start" x="240.5" y="-594.3" font-family="Times,serif" font-size="14.00" fill="#000000">updated_at :timestamp(6) without time zone</text>
</g>
<!-- Admin&#45;&gt;Transaction -->
<g id="edge3" class="edge">
<title>Admin&#45;&gt;Transaction</title>
<path fill="none" stroke="#a8b9f7" d="M236.0005,-579.0861C231.0311,-569.5882 226.6409,-559.8746 223,-550 174.2593,-417.8107 162.3633,-360.1726 223,-233 230.3396,-217.6066 240.3972,-203.4042 251.9598,-190.4614"/>
<ellipse fill="none" stroke="#a8b9f7" cx="238.0059" cy="-582.7889" rx="4" ry="4"/>
<polygon fill="#a8b9f7" stroke="#a8b9f7" points="252.111,-190.2993 262.2229,-186.0566 255.5217,-186.6431 258.9323,-182.987 258.9323,-182.987 258.9323,-182.987 255.5217,-186.6431 255.6418,-179.9174 252.111,-190.2993 252.111,-190.2993"/>
</g>
<!-- Admin&#45;&gt;User -->
<g id="edge2" class="edge">
<title>Admin&#45;&gt;User</title>
<path fill="none" stroke="#249368" d="M389,-578.3079C389,-572.1828 389,-566.041 389,-559.9123"/>
<ellipse fill="none" stroke="#249368" cx="389" cy="-582.3273" rx="4" ry="4"/>
<polygon fill="#249368" stroke="#249368" points="389.0001,-559.6157 393.5,-549.6156 389,-554.6157 389,-549.6157 389,-549.6157 389,-549.6157 389,-554.6157 384.5,-549.6157 389.0001,-559.6157 389.0001,-559.6157"/>
</g>
<!-- Beneficiary -->
<g id="node6" class="node">
<title>Beneficiary</title>
<path fill="none" stroke="#000000" d="M576,-301C576,-301 812,-301 812,-301 818,-301 824,-307 824,-313 824,-313 824,-470 824,-470 824,-476 818,-482 812,-482 812,-482 576,-482 576,-482 570,-482 564,-476 564,-470 564,-470 564,-313 564,-313 564,-307 570,-301 576,-301"/>
<text text-anchor="middle" x="694" y="-466.8" font-family="Times,serif" font-size="14.00" fill="#000000">Beneficiary</text>
<polyline fill="none" stroke="#000000" points="564,-459 824,-459 "/>
<text text-anchor="start" x="572" y="-443.8" font-family="Times,serif" font-size="14.00" fill="#000000">id :bigint</text>
<text text-anchor="start" x="572" y="-428.8" font-family="Times,serif" font-size="14.00" fill="#000000">account_number :character varying</text>
<text text-anchor="start" x="572" y="-413.8" font-family="Times,serif" font-size="14.00" fill="#000000">name :character varying</text>
<text text-anchor="start" x="572" y="-398.8" font-family="Times,serif" font-size="14.00" fill="#000000">last_name :character varying</text>
<text text-anchor="start" x="572" y="-383.8" font-family="Times,serif" font-size="14.00" fill="#000000">bank :character varying</text>
<text text-anchor="start" x="572" y="-368.8" font-family="Times,serif" font-size="14.00" fill="#000000">personal_id :bigint</text>
<text text-anchor="start" x="572" y="-353.8" font-family="Times,serif" font-size="14.00" fill="#000000">telephone_number :bigint</text>
<text text-anchor="start" x="572" y="-338.8" font-family="Times,serif" font-size="14.00" fill="#000000">mobile_pay :bigint</text>
<text text-anchor="start" x="572" y="-323.8" font-family="Times,serif" font-size="14.00" fill="#000000">created_at :timestamp(6) without time zone</text>
<text text-anchor="start" x="572" y="-308.8" font-family="Times,serif" font-size="14.00" fill="#000000">updated_at :timestamp(6) without time zone</text>
</g>
<!-- Admin&#45;&gt;Beneficiary -->
<g id="edge4" class="edge">
<title>Admin&#45;&gt;Beneficiary</title>
<path fill="none" stroke="#819d98" d="M531.0774,-580.0629C557.6072,-549.3579 584.5597,-518.1637 608.7031,-490.2207"/>
<ellipse fill="none" stroke="#819d98" cx="528.28" cy="-583.3005" rx="4" ry="4"/>
<polygon fill="#819d98" stroke="#819d98" points="608.8977,-489.9955 618.8406,-485.3707 612.1666,-486.2121 615.4356,-482.4287 615.4356,-482.4287 615.4356,-482.4287 612.1666,-486.2121 612.0305,-479.4866 608.8977,-489.9955 608.8977,-489.9955"/>
</g>
<!-- Beneficiary&#45;&gt;Transaction -->
<g id="edge5" class="edge">
<title>Beneficiary&#45;&gt;Transaction</title>
<path fill="none" stroke="#ed90c0" d="M612.8461,-294.5311C594.1363,-273.6372 573.8757,-252.104 554,-233 543.7167,-223.116 532.784,-213.1553 521.6312,-203.3657"/>
<ellipse fill="none" stroke="#ed90c0" cx="615.6787" cy="-297.7103" rx="4" ry="4"/>
<polygon fill="#ed90c0" stroke="#ed90c0" points="521.4229,-203.1843 516.8348,-193.2244 517.6516,-199.9015 513.8803,-196.6186 513.8803,-196.6186 513.8803,-196.6186 517.6516,-199.9015 510.9257,-200.0128 521.4229,-203.1843 521.4229,-203.1843"/>
</g>
</g>
</svg>
