<?xml version="1.0" encoding="UTF-8" standalone="no"?>
<!DOCTYPE svg PUBLIC "-//W3C//DTD SVG 1.1//EN"
 "http://www.w3.org/Graphics/SVG/1.1/DTD/svg11.dtd">
<!-- Generated by graphviz version 2.40.1 (20161225.0304)
 -->
<!-- Title: models_diagram Pages: 1 -->
<svg width="832pt" height="941pt"
 viewBox="0.00 0.00 832.00 941.00" xmlns="http://www.w3.org/2000/svg" xmlns:xlink="http://www.w3.org/1999/xlink">
<g id="graph0" class="graph" transform="scale(1 1) rotate(0) translate(4 937)">
<title>models_diagram</title>
<polygon fill="transparent" stroke="transparent" points="-4,4 -4,-937 828,-937 828,4 -4,4"/>
<!-- _diagram_info -->
<g id="node1" class="node">
<title>_diagram_info</title>
<text text-anchor="start" x="8" y="-799.1" font-family="Times,serif" font-size="13.00" fill="#000000">Models diagram</text>
<text text-anchor="start" x="8" y="-785.1" font-family="Times,serif" font-size="13.00" fill="#000000">Date: Mar 16 2020 &#45; 15:31</text>
<text text-anchor="start" x="8" y="-771.1" font-family="Times,serif" font-size="13.00" fill="#000000">Migration version: 20200229222650</text>
<text text-anchor="start" x="8" y="-757.1" font-family="Times,serif" font-size="13.00" fill="#000000">Generated by RailRoady 1.5.3</text>
<text text-anchor="start" x="8" y="-743.1" font-family="Times,serif" font-size="13.00" fill="#000000">http://railroady.prestonlee.com</text>
</g>
<!-- Transaction -->
<g id="node2" class="node">
<title>Transaction</title>
<path fill="none" stroke="#000000" d="M271,-.5C271,-.5 507,-.5 507,-.5 513,-.5 519,-6.5 519,-12.5 519,-12.5 519,-199.5 519,-199.5 519,-205.5 513,-211.5 507,-211.5 507,-211.5 271,-211.5 271,-211.5 265,-211.5 259,-205.5 259,-199.5 259,-199.5 259,-12.5 259,-12.5 259,-6.5 265,-.5 271,-.5"/>
<text text-anchor="middle" x="389" y="-196.3" font-family="Times,serif" font-size="14.00" fill="#000000">Transaction</text>
<polyline fill="none" stroke="#000000" points="259,-188.5 519,-188.5 "/>
<text text-anchor="start" x="267" y="-173.3" font-family="Times,serif" font-size="14.00" fill="#000000">id :bigint</text>
<text text-anchor="start" x="267" y="-158.3" font-family="Times,serif" font-size="14.00" fill="#000000">beneficiary_id :bigint</text>
<text text-anchor="start" x="267" y="-143.3" font-family="Times,serif" font-size="14.00" fill="#000000">user_id :bigint</text>
<text text-anchor="start" x="267" y="-128.3" font-family="Times,serif" font-size="14.00" fill="#000000">rate :integer</text>
<text text-anchor="start" x="267" y="-113.3" font-family="Times,serif" font-size="14.00" fill="#000000">currency :character varying</text>
<text text-anchor="start" x="267" y="-98.3" font-family="Times,serif" font-size="14.00" fill="#000000">money_received :integer</text>
<text text-anchor="start" x="267" y="-83.3" font-family="Times,serif" font-size="14.00" fill="#000000">money_sent :integer</text>
<text text-anchor="start" x="267" y="-68.3" font-family="Times,serif" font-size="14.00" fill="#000000">in_progress :boolean</text>
<text text-anchor="start" x="267" y="-53.3" font-family="Times,serif" font-size="14.00" fill="#000000">finished :boolean</text>
<text text-anchor="start" x="267" y="-38.3" font-family="Times,serif" font-size="14.00" fill="#000000">created_at :timestamp(6) without time zone</text>
<text text-anchor="start" x="267" y="-23.3" font-family="Times,serif" font-size="14.00" fill="#000000">updated_at :timestamp(6) without time zone</text>
<text text-anchor="start" x="267" y="-8.3" font-family="Times,serif" font-size="14.00" fill="#000000">admin_id :bigint</text>
</g>
<!-- User -->
<g id="node3" class="node">
<title>User</title>
<path fill="none" stroke="#000000" d="M244.5,-248.5C244.5,-248.5 533.5,-248.5 533.5,-248.5 539.5,-248.5 545.5,-254.5 545.5,-260.5 545.5,-260.5 545.5,-567.5 545.5,-567.5 545.5,-573.5 539.5,-579.5 533.5,-579.5 533.5,-579.5 244.5,-579.5 244.5,-579.5 238.5,-579.5 232.5,-573.5 232.5,-567.5 232.5,-567.5 232.5,-260.5 232.5,-260.5 232.5,-254.5 238.5,-248.5 244.5,-248.5"/>
<text text-anchor="middle" x="389" y="-564.3" font-family="Times,serif" font-size="14.00" fill="#000000">User</text>
<polyline fill="none" stroke="#000000" points="232.5,-556.5 545.5,-556.5 "/>
<text text-anchor="start" x="240.5" y="-541.3" font-family="Times,serif" font-size="14.00" fill="#000000">id :bigint</text>
<text text-anchor="start" x="240.5" y="-526.3" font-family="Times,serif" font-size="14.00" fill="#000000">provider :character varying</text>
<text text-anchor="start" x="240.5" y="-511.3" font-family="Times,serif" font-size="14.00" fill="#000000">uid :character varying</text>
<text text-anchor="start" x="240.5" y="-496.3" font-family="Times,serif" font-size="14.00" fill="#000000">encrypted_password :character varying</text>
<text text-anchor="start" x="240.5" y="-481.3" font-family="Times,serif" font-size="14.00" fill="#000000">reset_password_token :character varying</text>
<text text-anchor="start" x="240.5" y="-466.3" font-family="Times,serif" font-size="14.00" fill="#000000">reset_password_sent_at :timestamp without time zone</text>
<text text-anchor="start" x="240.5" y="-451.3" font-family="Times,serif" font-size="14.00" fill="#000000">allow_password_change :boolean</text>
<text text-anchor="start" x="240.5" y="-436.3" font-family="Times,serif" font-size="14.00" fill="#000000">remember_created_at :timestamp without time zone</text>
<text text-anchor="start" x="240.5" y="-421.3" font-family="Times,serif" font-size="14.00" fill="#000000">confirmation_token :character varying</text>
<text text-anchor="start" x="240.5" y="-406.3" font-family="Times,serif" font-size="14.00" fill="#000000">confirmed_at :timestamp without time zone</text>
<text text-anchor="start" x="240.5" y="-391.3" font-family="Times,serif" font-size="14.00" fill="#000000">confirmation_sent_at :timestamp without time zone</text>
<text text-anchor="start" x="240.5" y="-376.3" font-family="Times,serif" font-size="14.00" fill="#000000">unconfirmed_email :character varying</text>
<text text-anchor="start" x="240.5" y="-361.3" font-family="Times,serif" font-size="14.00" fill="#000000">name :character varying</text>
<text text-anchor="start" x="240.5" y="-346.3" font-family="Times,serif" font-size="14.00" fill="#000000">nickname :character varying</text>
<text text-anchor="start" x="240.5" y="-331.3" font-family="Times,serif" font-size="14.00" fill="#000000">image :character varying</text>
<text text-anchor="start" x="240.5" y="-316.3" font-family="Times,serif" font-size="14.00" fill="#000000">email :character varying</text>
<text text-anchor="start" x="240.5" y="-301.3" font-family="Times,serif" font-size="14.00" fill="#000000">tokens :json</text>
<text text-anchor="start" x="240.5" y="-286.3" font-family="Times,serif" font-size="14.00" fill="#000000">created_at :timestamp(6) without time zone</text>
<text text-anchor="start" x="240.5" y="-271.3" font-family="Times,serif" font-size="14.00" fill="#000000">updated_at :timestamp(6) without time zone</text>
<text text-anchor="start" x="240.5" y="-256.3" font-family="Times,serif" font-size="14.00" fill="#000000">admin_id :bigint</text>
</g>
<!-- User&#45;&gt;Transaction -->
<g id="edge1" class="edge">
<title>User&#45;&gt;Transaction</title>
<path fill="none" stroke="#bc1eb6" d="M389,-240.1683C389,-233.9985 389,-227.8719 389,-221.8289"/>
<ellipse fill="none" stroke="#bc1eb6" cx="389" cy="-244.2796" rx="4" ry="4"/>
<polygon fill="#bc1eb6" stroke="#bc1eb6" points="389.0001,-221.7453 393.5,-211.7452 389,-216.7453 389,-211.7453 389,-211.7453 389,-211.7453 389,-216.7453 384.5,-211.7453 389.0001,-221.7453 389.0001,-221.7453"/>
</g>
<!-- ApplicationRecord -->
<g id="node4" class="node">
<title>ApplicationRecord</title>
<ellipse fill="none" stroke="#000000" cx="641" cy="-774.5" rx="77.1866" ry="18"/>
<text text-anchor="middle" x="641" y="-770.8" font-family="Times,serif" font-size="14.00" fill="#000000">ApplicationRecord</text>
</g>
<!-- Admin -->
<g id="node5" class="node">
<title>Admin</title>
<path fill="none" stroke="#000000" d="M244.5,-616.5C244.5,-616.5 533.5,-616.5 533.5,-616.5 539.5,-616.5 545.5,-622.5 545.5,-628.5 545.5,-628.5 545.5,-920.5 545.5,-920.5 545.5,-926.5 539.5,-932.5 533.5,-932.5 533.5,-932.5 244.5,-932.5 244.5,-932.5 238.5,-932.5 232.5,-926.5 232.5,-920.5 232.5,-920.5 232.5,-628.5 232.5,-628.5 232.5,-622.5 238.5,-616.5 244.5,-616.5"/>
<text text-anchor="middle" x="389" y="-917.3" font-family="Times,serif" font-size="14.00" fill="#000000">Admin</text>
<polyline fill="none" stroke="#000000" points="232.5,-909.5 545.5,-909.5 "/>
<text text-anchor="start" x="240.5" y="-894.3" font-family="Times,serif" font-size="14.00" fill="#000000">id :bigint</text>
<text text-anchor="start" x="240.5" y="-879.3" font-family="Times,serif" font-size="14.00" fill="#000000">provider :character varying</text>
<text text-anchor="start" x="240.5" y="-864.3" font-family="Times,serif" font-size="14.00" fill="#000000">uid :character varying</text>
<text text-anchor="start" x="240.5" y="-849.3" font-family="Times,serif" font-size="14.00" fill="#000000">encrypted_password :character varying</text>
<text text-anchor="start" x="240.5" y="-834.3" font-family="Times,serif" font-size="14.00" fill="#000000">reset_password_token :character varying</text>
<text text-anchor="start" x="240.5" y="-819.3" font-family="Times,serif" font-size="14.00" fill="#000000">reset_password_sent_at :timestamp without time zone</text>
<text text-anchor="start" x="240.5" y="-804.3" font-family="Times,serif" font-size="14.00" fill="#000000">allow_password_change :boolean</text>
<text text-anchor="start" x="240.5" y="-789.3" font-family="Times,serif" font-size="14.00" fill="#000000">remember_created_at :timestamp without time zone</text>
<text text-anchor="start" x="240.5" y="-774.3" font-family="Times,serif" font-size="14.00" fill="#000000">confirmation_token :character varying</text>
<text text-anchor="start" x="240.5" y="-759.3" font-family="Times,serif" font-size="14.00" fill="#000000">confirmed_at :timestamp without time zone</text>
<text text-anchor="start" x="240.5" y="-744.3" font-family="Times,serif" font-size="14.00" fill="#000000">confirmation_sent_at :timestamp without time zone</text>
<text text-anchor="start" x="240.5" y="-729.3" font-family="Times,serif" font-size="14.00" fill="#000000">unconfirmed_email :character varying</text>
<text text-anchor="start" x="240.5" y="-714.3" font-family="Times,serif" font-size="14.00" fill="#000000">name :character varying</text>
<text text-anchor="start" x="240.5" y="-699.3" font-family="Times,serif" font-size="14.00" fill="#000000">nickname :character varying</text>
<text text-anchor="start" x="240.5" y="-684.3" font-family="Times,serif" font-size="14.00" fill="#000000">image :character varying</text>
<text text-anchor="start" x="240.5" y="-669.3" font-family="Times,serif" font-size="14.00" fill="#000000">email :character varying</text>
<text text-anchor="start" x="240.5" y="-654.3" font-family="Times,serif" font-size="14.00" fill="#000000">tokens :json</text>
<text text-anchor="start" x="240.5" y="-639.3" font-family="Times,serif" font-size="14.00" fill="#000000">created_at :timestamp(6) without time zone</text>
<text text-anchor="start" x="240.5" y="-624.3" font-family="Times,serif" font-size="14.00" fill="#000000">updated_at :timestamp(6) without time zone</text>
</g>
<!-- Admin&#45;&gt;Transaction -->
<g id="edge3" class="edge">
<title>Admin&#45;&gt;Transaction</title>
<path fill="none" stroke="#513575" d="M236.0005,-609.0861C231.0311,-599.5882 226.6409,-589.8746 223,-580 171.9529,-441.5556 161.2764,-382.0255 223,-248 230.2939,-232.1622 240.3222,-217.433 251.8674,-203.9251"/>
<ellipse fill="none" stroke="#513575" cx="238.0059" cy="-612.7889" rx="4" ry="4"/>
<polygon fill="#513575" stroke="#513575" points="252.1766,-203.5782 262.1901,-199.1083 255.5039,-199.846 258.8311,-196.1138 258.8311,-196.1138 258.8311,-196.1138 255.5039,-199.846 255.4721,-193.1192 252.1766,-203.5782 252.1766,-203.5782"/>
</g>
<!-- Admin&#45;&gt;User -->
<g id="edge2" class="edge">
<title>Admin&#45;&gt;User</title>
<path fill="none" stroke="#4c0c06" d="M389,-608.3543C389,-602.2226 389,-596.069 389,-589.9221"/>
<ellipse fill="none" stroke="#4c0c06" cx="389" cy="-612.3795" rx="4" ry="4"/>
<polygon fill="#4c0c06" stroke="#4c0c06" points="389.0001,-589.5886 393.5,-579.5886 389,-584.5886 389,-579.5886 389,-579.5886 389,-579.5886 389,-584.5886 384.5,-579.5887 389.0001,-589.5886 389.0001,-589.5886"/>
</g>
<!-- Beneficiary -->
<g id="node6" class="node">
<title>Beneficiary</title>
<path fill="none" stroke="#000000" d="M576,-316C576,-316 812,-316 812,-316 818,-316 824,-322 824,-328 824,-328 824,-500 824,-500 824,-506 818,-512 812,-512 812,-512 576,-512 576,-512 570,-512 564,-506 564,-500 564,-500 564,-328 564,-328 564,-322 570,-316 576,-316"/>
<text text-anchor="middle" x="694" y="-496.8" font-family="Times,serif" font-size="14.00" fill="#000000">Beneficiary</text>
<polyline fill="none" stroke="#000000" points="564,-489 824,-489 "/>
<text text-anchor="start" x="572" y="-473.8" font-family="Times,serif" font-size="14.00" fill="#000000">id :bigint</text>
<text text-anchor="start" x="572" y="-458.8" font-family="Times,serif" font-size="14.00" fill="#000000">account_number :character varying</text>
<text text-anchor="start" x="572" y="-443.8" font-family="Times,serif" font-size="14.00" fill="#000000">name :character varying</text>
<text text-anchor="start" x="572" y="-428.8" font-family="Times,serif" font-size="14.00" fill="#000000">last_name :character varying</text>
<text text-anchor="start" x="572" y="-413.8" font-family="Times,serif" font-size="14.00" fill="#000000">bank :character varying</text>
<text text-anchor="start" x="572" y="-398.8" font-family="Times,serif" font-size="14.00" fill="#000000">personal_id :bigint</text>
<text text-anchor="start" x="572" y="-383.8" font-family="Times,serif" font-size="14.00" fill="#000000">telephone_number :bigint</text>
<text text-anchor="start" x="572" y="-368.8" font-family="Times,serif" font-size="14.00" fill="#000000">mobile_pay :bigint</text>
<text text-anchor="start" x="572" y="-353.8" font-family="Times,serif" font-size="14.00" fill="#000000">created_at :timestamp(6) without time zone</text>
<text text-anchor="start" x="572" y="-338.8" font-family="Times,serif" font-size="14.00" fill="#000000">updated_at :timestamp(6) without time zone</text>
<text text-anchor="start" x="572" y="-323.8" font-family="Times,serif" font-size="14.00" fill="#000000">admin_id :bigint</text>
</g>
<!-- Admin&#45;&gt;Beneficiary -->
<g id="edge4" class="edge">
<title>Admin&#45;&gt;Beneficiary</title>
<path fill="none" stroke="#862eae" d="M528.5795,-610.0329C537.1844,-599.8728 545.7113,-589.7992 554,-580 570.3354,-560.6875 587.7247,-540.0958 604.4934,-520.2219"/>
<ellipse fill="none" stroke="#862eae" cx="525.7984" cy="-613.3163" rx="4" ry="4"/>
<polygon fill="#862eae" stroke="#862eae" points="604.6861,-519.9934 614.5739,-515.2518 607.9103,-516.1717 611.1344,-512.3501 611.1344,-512.3501 611.1344,-512.3501 607.9103,-516.1717 607.695,-509.4483 604.6861,-519.9934 604.6861,-519.9934"/>
</g>
<!-- Beneficiary&#45;&gt;Transaction -->
<g id="edge5" class="edge">
<title>Beneficiary&#45;&gt;Transaction</title>
<path fill="none" stroke="#16912b" d="M610.1751,-309.4167C592.2291,-288.5285 572.9512,-267.1414 554,-248 544.3714,-238.2748 534.1655,-228.4597 523.7381,-218.7748"/>
<ellipse fill="none" stroke="#16912b" cx="612.8497" cy="-312.545" rx="4" ry="4"/>
<polygon fill="#16912b" stroke="#16912b" points="523.4662,-218.5243 519.1603,-208.4391 519.7888,-215.1365 516.1113,-211.7488 516.1113,-211.7488 516.1113,-211.7488 519.7888,-215.1365 513.0624,-215.0585 523.4662,-218.5243 523.4662,-218.5243"/>
</g>
</g>
</svg>
