<?xml version="1.0" encoding="UTF-8" standalone="no"?>
<!DOCTYPE svg PUBLIC "-//W3C//DTD SVG 1.1//EN"
 "http://www.w3.org/Graphics/SVG/1.1/DTD/svg11.dtd">
<!-- Generated by graphviz version 2.40.1 (20161225.0304)
 -->
<!-- Title: models_diagram Pages: 1 -->
<svg width="484pt" height="230pt"
 viewBox="0.00 0.00 484.34 230.00" xmlns="http://www.w3.org/2000/svg" xmlns:xlink="http://www.w3.org/1999/xlink">
<g id="graph0" class="graph" transform="scale(1 1) rotate(0) translate(4 226)">
<title>models_diagram</title>
<polygon fill="transparent" stroke="transparent" points="-4,4 -4,-226 480.3431,-226 480.3431,4 -4,4"/>
<!-- _diagram_info -->
<g id="node1" class="node">
<title>_diagram_info</title>
<text text-anchor="start" x="8" y="-207.6" font-family="Times,serif" font-size="13.00" fill="#000000">Models diagram</text>
<text text-anchor="start" x="8" y="-193.6" font-family="Times,serif" font-size="13.00" fill="#000000">Date: Feb 24 2020 &#45; 18:39</text>
<text text-anchor="start" x="8" y="-179.6" font-family="Times,serif" font-size="13.00" fill="#000000">Migration version: 20200224212509</text>
<text text-anchor="start" x="8" y="-165.6" font-family="Times,serif" font-size="13.00" fill="#000000">Generated by RailRoady 1.5.3</text>
<text text-anchor="start" x="8" y="-151.6" font-family="Times,serif" font-size="13.00" fill="#000000">http://railroady.prestonlee.com</text>
</g>
<!-- Transaction -->
<g id="node2" class="node">
<title>Transaction</title>
<ellipse fill="none" stroke="#000000" cx="268" cy="-18" rx="51.9908" ry="18"/>
<text text-anchor="middle" x="268" y="-14.3" font-family="Times,serif" font-size="14.00" fill="#000000">Transaction</text>
</g>
<!-- User -->
<g id="node3" class="node">
<title>User</title>
<ellipse fill="none" stroke="#000000" cx="268" cy="-90" rx="27.0966" ry="18"/>
<text text-anchor="middle" x="268" y="-86.3" font-family="Times,serif" font-size="14.00" fill="#000000">User</text>
</g>
<!-- User&#45;&gt;Transaction -->
<g id="edge1" class="edge">
<title>User&#45;&gt;Transaction</title>
<path fill="none" stroke="#a71096" d="M268,-63.8144C268,-58.2775 268,-52.4053 268,-46.7785"/>
<ellipse fill="none" stroke="#a71096" cx="268" cy="-67.8314" rx="4" ry="4"/>
<polygon fill="#a71096" stroke="#a71096" points="268.0001,-46.4133 272.5,-36.4132 268,-41.4133 268,-36.4133 268,-36.4133 268,-36.4133 268,-41.4133 263.5,-36.4133 268.0001,-46.4133 268.0001,-46.4133"/>
</g>
<!-- ApplicationRecord -->
<g id="node4" class="node">
<title>ApplicationRecord</title>
<ellipse fill="none" stroke="#000000" cx="399" cy="-183" rx="77.1866" ry="18"/>
<text text-anchor="middle" x="399" y="-179.3" font-family="Times,serif" font-size="14.00" fill="#000000">ApplicationRecord</text>
</g>
<!-- Admin -->
<g id="node5" class="node">
<title>Admin</title>
<ellipse fill="none" stroke="#000000" cx="268" cy="-183" rx="35.9954" ry="18"/>
<text text-anchor="middle" x="268" y="-179.3" font-family="Times,serif" font-size="14.00" fill="#000000">Admin</text>
</g>
<!-- Admin&#45;&gt;Transaction -->
<g id="edge3" class="edge">
<title>Admin&#45;&gt;Transaction</title>
<path fill="none" stroke="#0fdc37" d="M251.4141,-158.9224C238.0568,-136.4964 222.8884,-102.0935 232,-72 235.0049,-62.0755 240.5019,-52.3077 246.3108,-43.8667"/>
<ellipse fill="none" stroke="#0fdc37" cx="253.5466" cy="-162.3624" rx="4" ry="4"/>
<polygon fill="#0fdc37" stroke="#0fdc37" points="246.4642,-43.6579 256.012,-38.2643 249.425,-39.6287 252.3858,-35.5996 252.3858,-35.5996 252.3858,-35.5996 249.425,-39.6287 248.7596,-32.9349 246.4642,-43.6579 246.4642,-43.6579"/>
</g>
<!-- Admin&#45;&gt;User -->
<g id="edge2" class="edge">
<title>Admin&#45;&gt;User</title>
<path fill="none" stroke="#6b213a" d="M268,-156.4432C268,-144.4479 268,-130.268 268,-118.0949"/>
<ellipse fill="none" stroke="#6b213a" cx="268" cy="-160.6262" rx="4" ry="4"/>
<polygon fill="#6b213a" stroke="#6b213a" points="268.0001,-118.0192 272.5,-108.0191 268,-113.0192 268,-108.0192 268,-108.0192 268,-108.0192 268,-113.0192 263.5,-108.0192 268.0001,-118.0192 268.0001,-118.0192"/>
</g>
<!-- Beneficiary -->
<g id="node6" class="node">
<title>Beneficiary</title>
<ellipse fill="none" stroke="#000000" cx="365" cy="-90" rx="51.9908" ry="18"/>
<text text-anchor="middle" x="365" y="-86.3" font-family="Times,serif" font-size="14.00" fill="#000000">Beneficiary</text>
</g>
<!-- Admin&#45;&gt;Beneficiary -->
<g id="edge4" class="edge">
<title>Admin&#45;&gt;Beneficiary</title>
<path fill="none" stroke="#7ec192" d="M290.9542,-160.9924C305.6456,-146.9068 324.7134,-128.6253 339.82,-114.1417"/>
<ellipse fill="none" stroke="#7ec192" cx="287.7835" cy="-164.0324" rx="4" ry="4"/>
<polygon fill="#7ec192" stroke="#7ec192" points="340.0961,-113.8769 350.4288,-110.2045 343.7053,-110.4166 347.3145,-106.9562 347.3145,-106.9562 347.3145,-106.9562 343.7053,-110.4166 344.2001,-103.708 340.0961,-113.8769 340.0961,-113.8769"/>
</g>
<!-- Beneficiary&#45;&gt;Transaction -->
<g id="edge5" class="edge">
<title>Beneficiary&#45;&gt;Transaction</title>
<path fill="none" stroke="#37de0d" d="M336.4488,-68.8074C324.4678,-59.9143 310.5198,-49.5611 298.3525,-40.5297"/>
<ellipse fill="none" stroke="#37de0d" cx="339.7773" cy="-71.278" rx="4" ry="4"/>
<polygon fill="#37de0d" stroke="#37de0d" points="298.2892,-40.4827 292.9416,-30.9091 294.2743,-37.5026 290.2595,-34.5225 290.2595,-34.5225 290.2595,-34.5225 294.2743,-37.5026 287.5774,-38.1359 298.2892,-40.4827 298.2892,-40.4827"/>
</g>
</g>
</svg>
