<?xml version="1.0" encoding="UTF-8" standalone="no"?>
<!DOCTYPE svg PUBLIC "-//W3C//DTD SVG 1.1//EN"
 "http://www.w3.org/Graphics/SVG/1.1/DTD/svg11.dtd">
<!-- Generated by graphviz version 2.40.1 (20161225.0304)
 -->
<!-- Title: models_diagram Pages: 1 -->
<svg width="832pt" height="926pt"
 viewBox="0.00 0.00 832.00 926.00" xmlns="http://www.w3.org/2000/svg" xmlns:xlink="http://www.w3.org/1999/xlink">
<g id="graph0" class="graph" transform="scale(1 1) rotate(0) translate(4 922)">
<title>models_diagram</title>
<polygon fill="transparent" stroke="transparent" points="-4,4 -4,-922 828,-922 828,4 -4,4"/>
<!-- _diagram_info -->
<g id="node1" class="node">
<title>_diagram_info</title>
<text text-anchor="start" x="8" y="-784.1" font-family="Times,serif" font-size="13.00" fill="#000000">Models diagram</text>
<text text-anchor="start" x="8" y="-770.1" font-family="Times,serif" font-size="13.00" fill="#000000">Date: Feb 29 2020 &#45; 19:11</text>
<text text-anchor="start" x="8" y="-756.1" font-family="Times,serif" font-size="13.00" fill="#000000">Migration version: 20200229212246</text>
<text text-anchor="start" x="8" y="-742.1" font-family="Times,serif" font-size="13.00" fill="#000000">Generated by RailRoady 1.5.3</text>
<text text-anchor="start" x="8" y="-728.1" font-family="Times,serif" font-size="13.00" fill="#000000">http://railroady.prestonlee.com</text>
</g>
<!-- Transaction -->
<g id="node2" class="node">
<title>Transaction</title>
<path fill="none" stroke="#000000" d="M271,-.5C271,-.5 507,-.5 507,-.5 513,-.5 519,-6.5 519,-12.5 519,-12.5 519,-184.5 519,-184.5 519,-190.5 513,-196.5 507,-196.5 507,-196.5 271,-196.5 271,-196.5 265,-196.5 259,-190.5 259,-184.5 259,-184.5 259,-12.5 259,-12.5 259,-6.5 265,-.5 271,-.5"/>
<text text-anchor="middle" x="389" y="-181.3" font-family="Times,serif" font-size="14.00" fill="#000000">Transaction</text>
<polyline fill="none" stroke="#000000" points="259,-173.5 519,-173.5 "/>
<text text-anchor="start" x="267" y="-158.3" font-family="Times,serif" font-size="14.00" fill="#000000">id :bigint</text>
<text text-anchor="start" x="267" y="-143.3" font-family="Times,serif" font-size="14.00" fill="#000000">beneficiary_id :bigint</text>
<text text-anchor="start" x="267" y="-128.3" font-family="Times,serif" font-size="14.00" fill="#000000">user_id :bigint</text>
<text text-anchor="start" x="267" y="-113.3" font-family="Times,serif" font-size="14.00" fill="#000000">rate :integer</text>
<text text-anchor="start" x="267" y="-98.3" font-family="Times,serif" font-size="14.00" fill="#000000">currency :character varying</text>
<text text-anchor="start" x="267" y="-83.3" font-family="Times,serif" font-size="14.00" fill="#000000">money_received :integer</text>
<text text-anchor="start" x="267" y="-68.3" font-family="Times,serif" font-size="14.00" fill="#000000">money_sent :integer</text>
<text text-anchor="start" x="267" y="-53.3" font-family="Times,serif" font-size="14.00" fill="#000000">in_progress :boolean</text>
<text text-anchor="start" x="267" y="-38.3" font-family="Times,serif" font-size="14.00" fill="#000000">finished :boolean</text>
<text text-anchor="start" x="267" y="-23.3" font-family="Times,serif" font-size="14.00" fill="#000000">created_at :timestamp(6) without time zone</text>
<text text-anchor="start" x="267" y="-8.3" font-family="Times,serif" font-size="14.00" fill="#000000">updated_at :timestamp(6) without time zone</text>
</g>
<!-- User -->
<g id="node3" class="node">
<title>User</title>
<path fill="none" stroke="#000000" d="M244.5,-233.5C244.5,-233.5 533.5,-233.5 533.5,-233.5 539.5,-233.5 545.5,-239.5 545.5,-245.5 545.5,-245.5 545.5,-552.5 545.5,-552.5 545.5,-558.5 539.5,-564.5 533.5,-564.5 533.5,-564.5 244.5,-564.5 244.5,-564.5 238.5,-564.5 232.5,-558.5 232.5,-552.5 232.5,-552.5 232.5,-245.5 232.5,-245.5 232.5,-239.5 238.5,-233.5 244.5,-233.5"/>
<text text-anchor="middle" x="389" y="-549.3" font-family="Times,serif" font-size="14.00" fill="#000000">User</text>
<polyline fill="none" stroke="#000000" points="232.5,-541.5 545.5,-541.5 "/>
<text text-anchor="start" x="240.5" y="-526.3" font-family="Times,serif" font-size="14.00" fill="#000000">id :bigint</text>
<text text-anchor="start" x="240.5" y="-511.3" font-family="Times,serif" font-size="14.00" fill="#000000">provider :character varying</text>
<text text-anchor="start" x="240.5" y="-496.3" font-family="Times,serif" font-size="14.00" fill="#000000">uid :character varying</text>
<text text-anchor="start" x="240.5" y="-481.3" font-family="Times,serif" font-size="14.00" fill="#000000">encrypted_password :character varying</text>
<text text-anchor="start" x="240.5" y="-466.3" font-family="Times,serif" font-size="14.00" fill="#000000">reset_password_token :character varying</text>
<text text-anchor="start" x="240.5" y="-451.3" font-family="Times,serif" font-size="14.00" fill="#000000">reset_password_sent_at :timestamp without time zone</text>
<text text-anchor="start" x="240.5" y="-436.3" font-family="Times,serif" font-size="14.00" fill="#000000">allow_password_change :boolean</text>
<text text-anchor="start" x="240.5" y="-421.3" font-family="Times,serif" font-size="14.00" fill="#000000">remember_created_at :timestamp without time zone</text>
<text text-anchor="start" x="240.5" y="-406.3" font-family="Times,serif" font-size="14.00" fill="#000000">confirmation_token :character varying</text>
<text text-anchor="start" x="240.5" y="-391.3" font-family="Times,serif" font-size="14.00" fill="#000000">confirmed_at :timestamp without time zone</text>
<text text-anchor="start" x="240.5" y="-376.3" font-family="Times,serif" font-size="14.00" fill="#000000">confirmation_sent_at :timestamp without time zone</text>
<text text-anchor="start" x="240.5" y="-361.3" font-family="Times,serif" font-size="14.00" fill="#000000">unconfirmed_email :character varying</text>
<text text-anchor="start" x="240.5" y="-346.3" font-family="Times,serif" font-size="14.00" fill="#000000">name :character varying</text>
<text text-anchor="start" x="240.5" y="-331.3" font-family="Times,serif" font-size="14.00" fill="#000000">nickname :character varying</text>
<text text-anchor="start" x="240.5" y="-316.3" font-family="Times,serif" font-size="14.00" fill="#000000">image :character varying</text>
<text text-anchor="start" x="240.5" y="-301.3" font-family="Times,serif" font-size="14.00" fill="#000000">email :character varying</text>
<text text-anchor="start" x="240.5" y="-286.3" font-family="Times,serif" font-size="14.00" fill="#000000">tokens :json</text>
<text text-anchor="start" x="240.5" y="-271.3" font-family="Times,serif" font-size="14.00" fill="#000000">created_at :timestamp(6) without time zone</text>
<text text-anchor="start" x="240.5" y="-256.3" font-family="Times,serif" font-size="14.00" fill="#000000">updated_at :timestamp(6) without time zone</text>
<text text-anchor="start" x="240.5" y="-241.3" font-family="Times,serif" font-size="14.00" fill="#000000">admin_id :bigint</text>
</g>
<!-- User&#45;&gt;Transaction -->
<g id="edge1" class="edge">
<title>User&#45;&gt;Transaction</title>
<path fill="none" stroke="#222901" d="M389,-225.1773C389,-218.9524 389,-212.7828 389,-206.7129"/>
<ellipse fill="none" stroke="#222901" cx="389" cy="-229.3675" rx="4" ry="4"/>
<polygon fill="#222901" stroke="#222901" points="389.0001,-206.5993 393.5,-196.5992 389,-201.5993 389,-196.5993 389,-196.5993 389,-196.5993 389,-201.5993 384.5,-196.5993 389.0001,-206.5993 389.0001,-206.5993"/>
</g>
<!-- ApplicationRecord -->
<g id="node4" class="node">
<title>ApplicationRecord</title>
<ellipse fill="none" stroke="#000000" cx="641" cy="-759.5" rx="77.1866" ry="18"/>
<text text-anchor="middle" x="641" y="-755.8" font-family="Times,serif" font-size="14.00" fill="#000000">ApplicationRecord</text>
</g>
<!-- Admin -->
<g id="node5" class="node">
<title>Admin</title>
<path fill="none" stroke="#000000" d="M244.5,-601.5C244.5,-601.5 533.5,-601.5 533.5,-601.5 539.5,-601.5 545.5,-607.5 545.5,-613.5 545.5,-613.5 545.5,-905.5 545.5,-905.5 545.5,-911.5 539.5,-917.5 533.5,-917.5 533.5,-917.5 244.5,-917.5 244.5,-917.5 238.5,-917.5 232.5,-911.5 232.5,-905.5 232.5,-905.5 232.5,-613.5 232.5,-613.5 232.5,-607.5 238.5,-601.5 244.5,-601.5"/>
<text text-anchor="middle" x="389" y="-902.3" font-family="Times,serif" font-size="14.00" fill="#000000">Admin</text>
<polyline fill="none" stroke="#000000" points="232.5,-894.5 545.5,-894.5 "/>
<text text-anchor="start" x="240.5" y="-879.3" font-family="Times,serif" font-size="14.00" fill="#000000">id :bigint</text>
<text text-anchor="start" x="240.5" y="-864.3" font-family="Times,serif" font-size="14.00" fill="#000000">provider :character varying</text>
<text text-anchor="start" x="240.5" y="-849.3" font-family="Times,serif" font-size="14.00" fill="#000000">uid :character varying</text>
<text text-anchor="start" x="240.5" y="-834.3" font-family="Times,serif" font-size="14.00" fill="#000000">encrypted_password :character varying</text>
<text text-anchor="start" x="240.5" y="-819.3" font-family="Times,serif" font-size="14.00" fill="#000000">reset_password_token :character varying</text>
<text text-anchor="start" x="240.5" y="-804.3" font-family="Times,serif" font-size="14.00" fill="#000000">reset_password_sent_at :timestamp without time zone</text>
<text text-anchor="start" x="240.5" y="-789.3" font-family="Times,serif" font-size="14.00" fill="#000000">allow_password_change :boolean</text>
<text text-anchor="start" x="240.5" y="-774.3" font-family="Times,serif" font-size="14.00" fill="#000000">remember_created_at :timestamp without time zone</text>
<text text-anchor="start" x="240.5" y="-759.3" font-family="Times,serif" font-size="14.00" fill="#000000">confirmation_token :character varying</text>
<text text-anchor="start" x="240.5" y="-744.3" font-family="Times,serif" font-size="14.00" fill="#000000">confirmed_at :timestamp without time zone</text>
<text text-anchor="start" x="240.5" y="-729.3" font-family="Times,serif" font-size="14.00" fill="#000000">confirmation_sent_at :timestamp without time zone</text>
<text text-anchor="start" x="240.5" y="-714.3" font-family="Times,serif" font-size="14.00" fill="#000000">unconfirmed_email :character varying</text>
<text text-anchor="start" x="240.5" y="-699.3" font-family="Times,serif" font-size="14.00" fill="#000000">name :character varying</text>
<text text-anchor="start" x="240.5" y="-684.3" font-family="Times,serif" font-size="14.00" fill="#000000">nickname :character varying</text>
<text text-anchor="start" x="240.5" y="-669.3" font-family="Times,serif" font-size="14.00" fill="#000000">image :character varying</text>
<text text-anchor="start" x="240.5" y="-654.3" font-family="Times,serif" font-size="14.00" fill="#000000">email :character varying</text>
<text text-anchor="start" x="240.5" y="-639.3" font-family="Times,serif" font-size="14.00" fill="#000000">tokens :json</text>
<text text-anchor="start" x="240.5" y="-624.3" font-family="Times,serif" font-size="14.00" fill="#000000">created_at :timestamp(6) without time zone</text>
<text text-anchor="start" x="240.5" y="-609.3" font-family="Times,serif" font-size="14.00" fill="#000000">updated_at :timestamp(6) without time zone</text>
</g>
<!-- Admin&#45;&gt;Transaction -->
<g id="edge3" class="edge">
<title>Admin&#45;&gt;Transaction</title>
<path fill="none" stroke="#f5fb41" d="M236.0005,-594.0861C231.0311,-584.5882 226.6409,-574.8746 223,-565 171.9529,-426.5556 159.4941,-366.1902 223,-233 230.3396,-217.6066 240.3972,-203.4042 251.9598,-190.4614"/>
<ellipse fill="none" stroke="#f5fb41" cx="238.0059" cy="-597.7889" rx="4" ry="4"/>
<polygon fill="#f5fb41" stroke="#f5fb41" points="252.111,-190.2993 262.2229,-186.0566 255.5217,-186.6431 258.9323,-182.987 258.9323,-182.987 258.9323,-182.987 255.5217,-186.6431 255.6418,-179.9174 252.111,-190.2993 252.111,-190.2993"/>
</g>
<!-- Admin&#45;&gt;User -->
<g id="edge2" class="edge">
<title>Admin&#45;&gt;User</title>
<path fill="none" stroke="#4df1f2" d="M389,-593.3543C389,-587.2226 389,-581.069 389,-574.9221"/>
<ellipse fill="none" stroke="#4df1f2" cx="389" cy="-597.3795" rx="4" ry="4"/>
<polygon fill="#4df1f2" stroke="#4df1f2" points="389.0001,-574.5886 393.5,-564.5886 389,-569.5886 389,-564.5886 389,-564.5886 389,-564.5886 389,-569.5886 384.5,-564.5887 389.0001,-574.5886 389.0001,-574.5886"/>
</g>
<!-- Beneficiary -->
<g id="node6" class="node">
<title>Beneficiary</title>
<path fill="none" stroke="#000000" d="M576,-308.5C576,-308.5 812,-308.5 812,-308.5 818,-308.5 824,-314.5 824,-320.5 824,-320.5 824,-477.5 824,-477.5 824,-483.5 818,-489.5 812,-489.5 812,-489.5 576,-489.5 576,-489.5 570,-489.5 564,-483.5 564,-477.5 564,-477.5 564,-320.5 564,-320.5 564,-314.5 570,-308.5 576,-308.5"/>
<text text-anchor="middle" x="694" y="-474.3" font-family="Times,serif" font-size="14.00" fill="#000000">Beneficiary</text>
<polyline fill="none" stroke="#000000" points="564,-466.5 824,-466.5 "/>
<text text-anchor="start" x="572" y="-451.3" font-family="Times,serif" font-size="14.00" fill="#000000">id :bigint</text>
<text text-anchor="start" x="572" y="-436.3" font-family="Times,serif" font-size="14.00" fill="#000000">account_number :character varying</text>
<text text-anchor="start" x="572" y="-421.3" font-family="Times,serif" font-size="14.00" fill="#000000">name :character varying</text>
<text text-anchor="start" x="572" y="-406.3" font-family="Times,serif" font-size="14.00" fill="#000000">last_name :character varying</text>
<text text-anchor="start" x="572" y="-391.3" font-family="Times,serif" font-size="14.00" fill="#000000">bank :character varying</text>
<text text-anchor="start" x="572" y="-376.3" font-family="Times,serif" font-size="14.00" fill="#000000">personal_id :bigint</text>
<text text-anchor="start" x="572" y="-361.3" font-family="Times,serif" font-size="14.00" fill="#000000">telephone_number :bigint</text>
<text text-anchor="start" x="572" y="-346.3" font-family="Times,serif" font-size="14.00" fill="#000000">mobile_pay :bigint</text>
<text text-anchor="start" x="572" y="-331.3" font-family="Times,serif" font-size="14.00" fill="#000000">created_at :timestamp(6) without time zone</text>
<text text-anchor="start" x="572" y="-316.3" font-family="Times,serif" font-size="14.00" fill="#000000">updated_at :timestamp(6) without time zone</text>
</g>
<!-- Admin&#45;&gt;Beneficiary -->
<g id="edge4" class="edge">
<title>Admin&#45;&gt;Beneficiary</title>
<path fill="none" stroke="#c1c9ba" d="M528.5795,-595.0329C537.1844,-584.8728 545.7113,-574.7992 554,-565 572.5124,-543.1138 592.3783,-519.5846 611.1605,-497.3192"/>
<ellipse fill="none" stroke="#c1c9ba" cx="525.7984" cy="-598.3163" rx="4" ry="4"/>
<polygon fill="#c1c9ba" stroke="#c1c9ba" points="611.3073,-497.1451 621.1946,-492.4025 614.5311,-493.3231 617.7548,-489.5011 617.7548,-489.5011 617.7548,-489.5011 614.5311,-493.3231 614.315,-486.5997 611.3073,-497.1451 611.3073,-497.1451"/>
</g>
<!-- Beneficiary&#45;&gt;Transaction -->
<g id="edge5" class="edge">
<title>Beneficiary&#45;&gt;Transaction</title>
<path fill="none" stroke="#de8b09" d="M617.5401,-302.1669C597.6646,-278.7606 575.7141,-254.354 554,-233 543.9375,-223.1044 533.2055,-213.1681 522.2276,-203.4236"/>
<ellipse fill="none" stroke="#de8b09" cx="620.2361" cy="-305.359" rx="4" ry="4"/>
<polygon fill="#de8b09" stroke="#de8b09" points="522.1033,-203.3143 517.5651,-193.3315 518.3484,-200.0126 514.5935,-196.7109 514.5935,-196.7109 514.5935,-196.7109 518.3484,-200.0126 511.622,-200.0903 522.1033,-203.3143 522.1033,-203.3143"/>
</g>
</g>
</svg>
